<svg
  xmlns="http://www.w3.org/2000/svg"
  viewBox="-5 -10 110 135"
  style="transform: rotate(-90deg);"
>
  <path fill="#017e12ff" d="m50 12c-20.988 0-38 17.012-38 38s17.012 38 38 38 38-17.012 38-38-17.012-38-38-38zm19.121 40.828-14 14c-0.78125 0.78125-1.8008 1.1719-2.8281 1.1719-1.0312 0-2.0508-0.39062-2.8281-1.1719-1.5586-1.5586-1.5586-4.0898 0-5.6602l7.1719-7.1719h-22.922c-2.2109 0-4-1.7891-4-4 0-2.2109 1.7891-4 4-4h22.922l-7.1719-7.1719c-1.5586-1.5586-1.5586-4.0898 0-5.6602 1.5586-1.5586 4.1016-1.5586 5.6602 0l14 14c1.5586 1.5586 1.5586 4.0898 0 5.6602z"/>
</svg>
